HIERARCHY
ROOT Hips
{
	OFFSET -14.64140 90.27770 -84.91600
	CHANNELS 6 Xposition Yposition Zposition Zrotation Xrotation Yrotation
	JOINT Spine
	{
		OFFSET 0.00000 13.20850 -1.60436
		CHANNELS 3 Zrotation Xrotation Yrotation
		JOINT Spine1
		{
			OFFSET 0.00000 8.61716 0.00000
			CHANNELS 3 Zrotation Xrotation Yrotation
			JOINT Spine2
			{
				OFFSET 0.00000 8.61717 0.00000
				CHANNELS 3 Zrotation Xrotation Yrotation
				JOINT Spine3
				{
					OFFSET 0.00000 8.61717 0.00000
					CHANNELS 3 Zrotation Xrotation Yrotation
					JOINT Neck
					{
						OFFSET 0.00000 11.07920 1.10792
						CHANNELS 3 Zrotation Xrotation Yrotation
						JOINT Neck1
						{
							OFFSET 0.00000 7.08032 0.00000
							CHANNELS 3 Zrotation Xrotation Yrotation
							JOINT Head
							{
								OFFSET 0.00000 7.08031 0.00000
								CHANNELS 3 Zrotation Xrotation Yrotation
								End site
								{
									OFFSET 0.00000 0.00000 0.00000
								}
							}
						}
					}
					JOINT RightShoulder
					{
						OFFSET -0.01000 7.91373 5.19711
						CHANNELS 3 Zrotation Xrotation Yrotation
						JOINT RightArm
						{
							OFFSET -18.41580 0.00000 0.00000
							CHANNELS 3 Zrotation Xrotation Yrotation
							JOINT RightForeArm
							{
								OFFSET -29.11090 0.00000 0.00000
								CHANNELS 3 Zrotation Xrotation Yrotation
								JOINT RightHand
								{
									OFFSET -24.65040 0.00000 0.00000
									CHANNELS 3 Zrotation Xrotation Yrotation
									JOINT RightHandThumb1
									{
										OFFSET -5.35114 -0.85590 3.97906
										CHANNELS 3 Zrotation Xrotation Yrotation
										JOINT RightHandThumb2
										{
											OFFSET -4.52789 0.00000 0.00000
											CHANNELS 3 Zrotation Xrotation Yrotation
											JOINT RightHandThumb3
											{
												OFFSET -2.46976 0.00000 0.00000
												CHANNELS 3 Zrotation Xrotation Yrotation
												End site
												{
													OFFSET 0.00000 0.00000 0.00000
												}
											}
										}
									}
									JOINT RightHandIndex1
									{
										OFFSET -14.26970 0.00000 2.88139
										CHANNELS 3 Zrotation Xrotation Yrotation
										JOINT RightHandIndex2
										{
											OFFSET -5.48836 0.00000 0.00000
											CHANNELS 3 Zrotation Xrotation Yrotation
											JOINT RightHandIndex3
											{
												OFFSET -3.01859 0.00000 0.00000
												CHANNELS 3 Zrotation Xrotation Yrotation
												End site
												{
													OFFSET 0.00000 0.00000 0.00000
												}
											}
										}
									}
									JOINT RightHandMiddle1
									{
										OFFSET -14.26970 0.00000 -0.09147
										CHANNELS 3 Zrotation Xrotation Yrotation
										JOINT RightHandMiddle2
										{
											OFFSET -6.17441 0.00000 0.00000
											CHANNELS 3 Zrotation Xrotation Yrotation
											JOINT RightHandMiddle3
											{
												OFFSET -3.56743 0.00000 0.00000
												CHANNELS 3 Zrotation Xrotation Yrotation
												End site
												{
													OFFSET 0.00000 0.00000 0.00000
												}
											}
										}
									}
									JOINT RightHandRing1
									{
										OFFSET -12.69180 0.00000 -3.06433
										CHANNELS 3 Zrotation Xrotation Yrotation
										JOINT RightHandRing2
										{
											OFFSET -5.62556 0.00000 0.00000
											CHANNELS 3 Zrotation Xrotation Yrotation
											JOINT RightHandRing3
											{
												OFFSET -3.56744 0.00000 0.00000
												CHANNELS 3 Zrotation Xrotation Yrotation
												End site
												{
													OFFSET 0.00000 0.00000 0.00000
												}
											}
										}
									}
									JOINT RightHandPinky1
									{
										OFFSET -11.11390 0.00000 -6.03719
										CHANNELS 3 Zrotation Xrotation Yrotation
										JOINT RightHandPinky2
										{
											OFFSET -4.52789 0.00000 0.00000
											CHANNELS 3 Zrotation Xrotation Yrotation
											JOINT RightHandPinky3
											{
												OFFSET -2.46976 0.00000 0.00000
												CHANNELS 3 Zrotation Xrotation Yrotation
												End site
												{
													OFFSET 0.00000 0.00000 0.00000
												}
											}
										}
									}
								}
							}
						}
					}
					JOINT LeftShoulder
					{
						OFFSET 0.01000 7.91373 5.19711
						CHANNELS 3 Zrotation Xrotation Yrotation
						JOINT LeftArm
						{
							OFFSET 18.41580 0.00000 0.00000
							CHANNELS 3 Zrotation Xrotation Yrotation
							JOINT LeftForeArm
							{
								OFFSET 29.11090 0.00000 0.00000
								CHANNELS 3 Zrotation Xrotation Yrotation
								JOINT LeftHand
								{
									OFFSET 24.65040 0.00000 0.00000
									CHANNELS 3 Zrotation Xrotation Yrotation
									JOINT LeftHandThumb1
									{
										OFFSET 5.35114 -0.85590 3.97906
										CHANNELS 3 Zrotation Xrotation Yrotation
										JOINT LeftHandThumb2
										{
											OFFSET 4.52789 0.00000 0.00000
											CHANNELS 3 Zrotation Xrotation Yrotation
											JOINT LeftHandThumb3
											{
												OFFSET 2.46977 0.00000 0.00000
												CHANNELS 3 Zrotation Xrotation Yrotation
												End site
												{
													OFFSET 0.00000 0.00000 0.00000
												}
											}
										}
									}
									JOINT LeftHandIndex1
									{
										OFFSET 14.26970 0.00000 2.88139
										CHANNELS 3 Zrotation Xrotation Yrotation
										JOINT LeftHandIndex2
										{
											OFFSET 5.48836 0.00000 0.00000
											CHANNELS 3 Zrotation Xrotation Yrotation
											JOINT LeftHandIndex3
											{
												OFFSET 3.01859 0.00000 0.00000
												CHANNELS 3 Zrotation Xrotation Yrotation
												End site
												{
													OFFSET 0.00000 0.00000 0.00000
												}
											}
										}
									}
									JOINT LeftHandMiddle1
									{
										OFFSET 14.26970 0.00000 -0.09147
										CHANNELS 3 Zrotation Xrotation Yrotation
										JOINT LeftHandMiddle2
										{
											OFFSET 6.17440 0.00000 0.00000
											CHANNELS 3 Zrotation Xrotation Yrotation
											JOINT LeftHandMiddle3
											{
												OFFSET 3.56744 0.00000 0.00000
												CHANNELS 3 Zrotation Xrotation Yrotation
												End site
												{
													OFFSET 0.00000 0.00000 0.00000
												}
											}
										}
									}
									JOINT LeftHandRing1
									{
										OFFSET 12.69180 0.00000 -3.06433
										CHANNELS 3 Zrotation Xrotation Yrotation
										JOINT LeftHandRing2
										{
											OFFSET 5.62556 0.00000 0.00000
											CHANNELS 3 Zrotation Xrotation Yrotation
											JOINT LeftHandRing3
											{
												OFFSET 3.56744 0.00000 0.00000
												CHANNELS 3 Zrotation Xrotation Yrotation
												End site
												{
													OFFSET 0.00000 0.00000 0.00000
												}
											}
										}
									}
									JOINT LeftHandPinky1
									{
										OFFSET 11.11390 0.00000 -6.03719
										CHANNELS 3 Zrotation Xrotation Yrotation
										JOINT LeftHandPinky2
										{
											OFFSET 4.52789 0.00000 0.00000
											CHANNELS 3 Zrotation Xrotation Yrotation
											JOINT LeftHandPinky3
											{
												OFFSET 2.46976 0.00000 0.00000
												CHANNELS 3 Zrotation Xrotation Yrotation
												End site
												{
													OFFSET 0.00000 0.00000 0.00000
												}
											}
										}
									}
								}
							}
						}
					}
					JOINT pCube4
					{
						OFFSET 0.00000 10.91090 1.10792
						CHANNELS 3 Zrotation Xrotation Yrotation
						End site
						{
							OFFSET 0.00000 0.00000 0.00000
						}
					}
				}
			}
		}
	}
	JOINT RightUpLeg
	{
		OFFSET -9.98441 0.00000 0.00000
		CHANNELS 3 Zrotation Xrotation Yrotation
		JOINT RightLeg
		{
			OFFSET 0.00000 -42.11790 0.00000
			CHANNELS 3 Zrotation Xrotation Yrotation
			JOINT RightFoot
			{
				OFFSET 0.00000 -45.00020 -0.00001
				CHANNELS 3 Zrotation Xrotation Yrotation
				JOINT RightForeFoot
				{
					OFFSET 0.00000 -3.74820 0.00000
					CHANNELS 3 Zrotation Xrotation Yrotation
					JOINT RightToeBase
					{
						OFFSET 0.00000 0.06325 14.43120
						CHANNELS 3 Zrotation Xrotation Yrotation
						End site
						{
							OFFSET 0.00000 0.00000 0.00000
						}
					}
				}
			}
		}
	}
	JOINT LeftUpLeg
	{
		OFFSET 9.98441 0.00000 0.00000
		CHANNELS 3 Zrotation Xrotation Yrotation
		JOINT LeftLeg
		{
			OFFSET 0.00000 -42.11800 0.00000
			CHANNELS 3 Zrotation Xrotation Yrotation
			JOINT LeftFoot
			{
				OFFSET 0.00000 -45.00070 0.00000
				CHANNELS 3 Zrotation Xrotation Yrotation
				JOINT LeftForeFoot
				{
					OFFSET 0.00000 -3.74824 0.00000
					CHANNELS 3 Zrotation Xrotation Yrotation
					JOINT LeftToeBase
					{
						OFFSET 0.00000 0.06325 14.43110
						CHANNELS 3 Zrotation Xrotation Yrotation
						End site
						{
							OFFSET 0.00000 0.00000 0.00000
						}
					}
				}
			}
		}
	}
}
MOTION
Frames: 4
Frame Time: 0.050000
-0.03417894624580172 0.00571549803563419 -0.021632839391921316 -0.011130440122105784 -0.038782254624108344 -0.00895443511575753 -1.3040500146090543 0.7415096539216919 -0.9990850654830429 -0.9104046672524712 3.850362702004165 0.39994880121714993 -1.1786229994479704 -1.737518245759188 -0.7934140678344318 0.9624142906558028 0.5099939359568402 -0.762929494364869 0.8432244341151404 12.429379973904906 -2.6068394514222035 0.04378639362732685 -0.6916846853039331 -8.019755873285368 0.8873448591289046 -16.127869650939285 -0.6226566689801168 -4.6302172095779905 1.492505333306794 -15.685932265654367 72.8393122924232 23.007705180397103 3.6812674571954167 2.2936858982188815 1.9847908856572187 41.4493195242826 21.150660941517827 -0.06757050303460932 -3.867995823176669 4.480886431199722 -0.1367993139330288 -1.5748914537153322 0.010138491540750624 -0.010997394390727163 -56.21561739032051 -0.013174404196957524 0.02198493159667312 -56.276427888466614 -38.771352463049396 -0.04993122350543121 -0.0006520375292192041 -0.04358480703892275 0.019291130464698283 0.038187312104390976 0.011565988089435202 -0.008986551740766539 -0.005727011191776872 -36.70047996486362 -0.004173532741814378 -0.02366805292607979 0.03110724782746478 0.02865366890543539 -0.006134040384248103 -0.0002307636753468571 -8.657588071857877e-05 0.04478424325937747 -19.71594655051134 -0.031000402513085952 0.026934977178957663 -0.0012053311553647031 -0.01616711960577951 0.017249669688828607 -0.02742316291138028 -0.03690098798082638 -0.03828554793777454 24.08092819977375 0.039519569135610215 0.048548468762160756 28.873325751612125 -0.002095045375699557 0.04994683220575141 28.855795295056414 0.03196887539822325 -0.026850513314187207 3.555342213977562 0.9907309816983233 13.465825894522448 -71.83100050798642 26.36750947911619 -0.1950258032178495 -3.8196717692157924 -8.725189210830806 -42.21115817367333 -14.180844947924227 -0.5993428950353369 2.9033042161098273 -0.48930149120694705 0.027175138793807112 -8.091143638915755 0.0062999568958238645 -0.042753709485974345 44.572755129754746 -0.04949168809869596 -0.035064230018854566 44.60848250100867 12.426539193010875 -0.03865353027943111 -0.020981215846146407 -0.022695873895730197 -0.029330354174833286 0.0026556160016262807 0.008544764597214654 0.030296881859685678 0.044126062980978424 11.06699574282242 0.00637606883052192 0.00842011288950428 -0.03585129316843962 0.0028771270054147495 -0.043651503669755516 -0.030219240286434412 0.021685714504677208 0.034898518219198364 4.796326081675002 0.008898634734950298 0.039551176786849856 0.02826629555738902 0.020010969288727067 -0.014028123544743164 0.03884516744821972 0.027844494095399977 0.01397838474086855 -5.649434591417709 -0.0056950522731496435 -0.017965415151343575 -6.705100716768706 -0.006508897870664098 -0.042392187049298015 -6.700417098210616 -0.03909289948234966 -0.029918988907852162 -0.028331854944280463 0.019431430550358647 -0.005185056313286181 8.060252465820243 3.485876935543943 -19.199024328747583 0.0327173261224857 10.404294615259046 -0.0158684248701011 -5.594912522114641 -15.655533801661312 3.180530230667103 -0.017072971855584863 -0.0023644428844429017 -0.018270246022687925 0.024426076131395937 4.7232510440049476 -0.0295649827822446 12.480684277041325 -8.234512782151041 6.9323984332513096 -0.012114973729216936 46.4024890585318 -0.022015696891055418 -4.304119993902551 -14.70856996460179 -3.860514884475406 -0.011921353110141133 -0.011224278811425405 0.021059243988435027 -0.02311492281682961 -10.716194074656467 -0.01637610379223414 
-0.044111402076938505 -0.019521797585448614 0.04120733918287263 -0.01011523558579172 -0.02705352069317987 -0.04820811575114927 -1.199807917083168 0.802460940109954 -1.0502908539022804 -0.9340582027506944 3.8464020920436788 0.3170776151213241 -1.1676852253285879 -1.759901576661251 -0.7114051230490793 1.0194543901067463 0.51731850052915 -0.8076885942326154 0.9154247212119383 12.330802922859402 -2.816185800665932 0.03592164966266574 -0.8047477628390977 -8.568494408128501 1.0012438537734651 -16.341411085561923 -0.6647517767092274 -4.709157743818635 1.4948118794558423 -15.76454125484262 73.02363343109647 22.66421130510039 3.3853914172726736 1.9813915562818076 1.9950417124090172 41.99862414936861 20.70343296927463 -0.13984693376597337 -3.844563623494843 4.566783949414452 -0.14437645678751815 -1.618805222363395 0.018990333596477803 -0.029106400478064537 -56.228762440659274 -0.04307727389797439 0.03810168854369511 -56.24042355275651 -38.784563390270606 0.042978220137493375 -0.04011816487556726 0.04720976425528017 -0.01775144688326674 0.04310855147834444 0.024729854672722693 -0.029481810732125777 -0.02748310063278424 -36.65776559882155 0.0239888110955323 -0.007421632000668793 -0.049175844839882896 -0.006958376076418318 -0.018217004625158625 -0.04555340444734146 0.04397139539504046 -0.009510215943263768 -19.7537828665451 0.020144558962664615 -0.04273225662331444 0.020459713200124966 -0.0260029385403095 -0.014626915585629577 -0.021590512704243062 -0.02128791744931086 -0.006713383214321804 24.102871145981087 -0.047988889948923 -0.017837828213943283 28.89562886701199 -0.04480813163196548 -0.021386489914603946 28.86472292172011 0.01086296814419358 0.01735779777373465 3.5266046525948282 0.9561477191757628 13.545251708316966 -72.02857169234282 26.903602889073806 -0.028562795729811477 -2.1887115883841313 -9.05735225975096 -42.68965261308602 -13.927955166423324 -0.7601940851113045 3.1333798902538774 -0.4791216211602727 0.1102704862478994 -8.135847516820515 -0.024550767366965504 -0.023191507976310487 44.56229464103942 0.008250658340331623 -0.026999788180482723 44.55680160022085 12.473075944296268 -0.03760747701771786 -0.0015921686453678864 -0.016730013186736767 0.035185650464537595 0.014584719286370776 0.0052951137801358905 -0.02248979485536676 0.02494452559977763 11.099430749748889 0.011444463954347102 -0.026812066777972644 -0.02229183305655962 0.027362180841883382 -0.035005420024263885 0.013918548462723612 0.033942123555602825 -0.01758703220063899 4.819965764170408 0.03380665687600466 -0.02161089904399868 -0.00746031405691868 0.008176281648440765 -0.04782047037755373 0.001969377684407119 -0.03771416257878561 -0.046684326366496845 -5.594509662597523 0.046363724928901354 0.01076184996977923 -6.700816430355831 0.01154078546886406 -0.03700777703885207 -6.722463724139 0.02636403930521851 0.006890381774243975 0.037952100105260934 -0.018365795648860078 0.007923441930130882 8.040910290263652 3.447077864051939 -19.268557894076302 -0.006046055458029544 10.3649558444641 -0.007771866580819287 -5.5890935333009475 -15.644055194245452 3.2150806530307223 -0.0058110460626615585 -0.04260523933419708 -0.0020220132871494245 0.01521887252468681 4.694855313889556 -0.008634067633940031 12.436691417170117 -8.25285091992315 6.907294679738818 0.02420126471902709 46.3382446713765 0.0013421219821372168 -4.353092954171048 -14.774852483968411 -3.869729801162223 -0.01606865719885408 -0.01595173770243917 -0.012624585005108354 -0.004391674475684311 -10.702826127934198 -0.0007942711967276834 
-0.02868768618955267 -0.041186531206885146 0.016177503902518934 -0.028085599210682946 0.024793550280422513 0.04021819902839324 -1.2005253450376845 0.8163602558811223 -1.0359936868149127 -0.9429901094547698 3.9285899249594856 0.36715997901240915 -1.2491846532842816 -1.732043584337093 -0.7688385037300273 1.0890566840842637 0.5112563220871533 -0.7360773129408755 0.9964737218104048 12.333145218766767 -3.082454765390516 0.0918699649247908 -0.8687044447367288 -8.986290527568926 1.1413914873405193 -16.59351898022515 -0.7546404844836533 -4.817196456660581 1.6032767426435077 -15.912872808902407 73.07770825282665 22.318299999004697 2.832919611567339 1.5473162905655502 1.852170337529808 42.313949048947535 20.430877358606843 -0.09066032890634768 -3.8000320172705355 4.553183424002504 -0.14489848169781377 -1.5894993849416834 0.04583673754884704 -0.011174921296874947 -56.219126495047576 -0.016991869613600653 -0.03181759904842731 -56.27276060930854 -38.76398917803998 -0.0383103777642864 -0.006613768963277692 0.02367108965215655 -0.011019053924908562 -0.04274972536121649 0.018949499918535936 -0.030050646597360016 -0.030481138412646592 -36.673535475301286 0.0333716514231403 -0.008195104429039719 -0.0009315833859375838 0.019781584410434126 -0.03825510783907503 -0.019439611588723406 -0.015718799771498856 0.048096272016493094 -19.732941562749495 -0.017954746828123095 -0.03544465460398077 -0.0032871088648155494 0.013380505411681218 0.006674924243275448 0.038343130552896273 -0.0013581265386105159 0.0020086615436183163 24.05921783137057 0.02737928429443061 -0.020842660660389332 28.904290171139767 -0.045812126224443625 -0.01621012901973694 28.896787470114774 -0.045375833174609775 0.021593005673872324 3.5103902882687072 0.961632466554483 13.510435567302943 -72.20251306068373 27.303099807404244 0.14305492329896255 -1.1718554522174809 -9.030147363290428 -42.82567476051721 -13.845633957933895 -0.7634066838964224 3.2526024940235403 -0.4794621909472602 0.11092563407645524 -8.100171218556795 0.018512552487242463 0.021607988251687315 44.559063010239825 -0.001862506335593029 0.003131992385993724 44.58081477358285 12.485312897405622 -0.030745392084505285 -0.01986587401681757 -0.031516875674562725 0.01748254125607109 0.03271786959802877 0.018900468907472583 -0.04199196771449376 -0.03897963886358826 11.075299816987407 0.0019325564691272561 -0.0459593101477819 0.004012879256834553 -0.015287068415664908 -0.04034136232653815 0.02938861023778813 -0.022116902485350354 -0.023671913179315246 4.746029442567768 -0.0157952877816413 -0.0023803000836902185 -0.013442802432452671 0.04983749092123424 0.021956803544858666 0.030161277113196567 0.008305608690357015 0.003314977677663523 -5.5595403296254435 0.03425698910094054 0.018596392879004844 -6.765473369955044 0.0325754863842816 -0.0008768336382867768 -6.728283796826551 -0.02362270013452489 -0.009603890446264703 -0.047148567695691854 -0.027301394639925425 -0.0363299385172396 8.039898074883935 3.505673100309411 -19.187321877605157 0.016088048415956534 10.349701635837052 0.03950788470346368 -5.654559256461113 -15.645650743785705 3.198261519526734 -0.016507815303900088 0.03848565117402367 0.029541114987365974 -0.031107253432763788 4.6893233042549785 0.016497461722446996 12.497139153406255 -8.274355186737045 6.916860046347428 0.03020045356091597 46.41157456824382 -0.023121658190397316 -4.30571047872557 -14.71690387032809 -3.8106828093304004 -0.044004010978972406 0.012059382066854366 -0.0075045556760589644 -0.018605942950657726 -10.761454232930788 -0.043564555496785694 
-0.005085570451882375 0.0021206465256661884 -0.03673991016092862 -0.03973627005594484 0.004491882376174927 0.0008486867932889294 -1.1440260802842752 0.8505876889873332 -1.036921978621042 -0.9257381734483872 3.932740859447994 0.32819813377068036 -1.2639168863972738 -1.713977603016771 -0.8262156128967064 1.0414084673392192 0.5202960203774121 -0.819682885198177 0.9732844430214783 12.306080485972043 -3.207972611186658 0.13374606467188827 -1.0001132772894454 -9.235103027410107 1.2353850082618894 -16.760112697903995 -0.7358275912561686 -4.938377300531755 1.5856523567308496 -16.090694221140684 72.94482137892889 22.040077684297078 2.0659218194521083 1.080461314508495 1.6031365751143598 42.38614347844057 20.264225202063113 -0.0692226522977581 -3.839767207419411 4.5034596284918615 -0.09831788009304476 -1.574674774823268 -0.011103013900222771 -0.03263035506480539 -56.20799567968786 0.04910085742296314 -0.029410797363062777 -56.217022485467204 -38.80397919284807 -0.006881198719968988 -0.03467833888149379 -0.01215823026686831 0.04202654200487918 -0.047761988533954906 0.022104144432731433 -0.0074201824777955635 -0.024327615598145377 -36.72437059244104 0.013515749395406132 0.016839606401957707 -0.022528219858436366 -0.018740069826305515 -0.02108291670869453 0.004591808551506223 -0.0325818737500252 -0.025907915985729977 -19.761888172437832 0.020323552021750495 -0.03015994298115496 0.028961126769449407 -0.0395660383283246 0.006959445606237639 -0.04743393477426992 0.019618558877746554 0.0030193757000252274 24.06835964654346 0.022869225642370736 0.0007496325988399977 28.839760177734494 0.010616793322383293 0.02404881571595637 28.82205235569097 0.0015375089611253773 -0.015241522836652071 3.5521980864118787 0.9876548791949712 13.576774375380927 -72.23461099494168 27.65702373547437 0.39400106943931834 -0.48976548724152213 -9.136326951070242 -42.72129484426462 -13.872354465802955 -0.7401679890136489 3.352963454819291 -0.5079445376051974 0.11234087315199733 -8.165503653451301 -0.027695060589517147 0.013757242054606005 44.54403097928028 0.006330969150958629 0.027677871066660066 44.56742491269488 12.471689737047628 0.0031096579101696836 0.0031255785178020273 0.02029259095377774 -1.4129361689728706e-05 -0.007598489038581296 -0.019247406468118906 -0.004889688303536617 -0.03108381357979611 11.088514781580937 -0.008508162513777 0.004683535015211337 -0.025196265109783258 0.007345965040696839 0.03350907594087468 0.039938696849038946 -0.0099145275108728 -0.038327320065048034 4.766655712663641 -0.005542866746512382 -0.030872848477670037 0.029942427036809154 -0.014277174548479427 -0.020671379340052976 -0.02265786693989204 0.04271053191775709 0.0415654504894114 -5.631535823864744 0.023988941757132818 -0.047676533978643465 -6.705076740844088 0.003971489958195415 -0.01843527559383956 -6.712804165816977 0.027154418347842598 -0.02713879676973209 -0.018056667014148507 0.016862367912341993 0.00951113178020456 8.090843727834427 3.4920872246655628 -19.18673422025582 -0.015343875616647582 10.397330323130234 -0.005410303921983509 -5.585347385705084 -15.68379766149986 3.1922401722372413 -0.03971013835652835 -0.0165355862737498 -0.014485408442371745 0.024164554113708072 4.659947280719837 -0.03964133548751923 12.45005394722682 -8.27286018091487 6.9086945481670705 -0.0010900464987967924 46.39668033046888 0.03473527075827544 -4.355349849048049 -14.73164792518773 -3.884720183402386 -0.021737774356721706 -0.03570429380432362 0.04092334588282537 -0.028894397609537888 -10.72150741066639 -0.04842317310070311 
